<?xml version="1.0" encoding="utf-8"?>
<!-- Generator: Adobe Illustrator 18.0.0, SVG Export Plug-In . SVG Version: 6.00 Build 0)  -->
<!DOCTYPE svg PUBLIC "-//W3C//DTD SVG 1.1//EN" "http://www.w3.org/Graphics/SVG/1.1/DTD/svg11.dtd">
<svg version="1.1" id="Calque_1" xmlns="http://www.w3.org/2000/svg" xmlns:xlink="http://www.w3.org/1999/xlink" x="0px" y="0px"
	 viewBox="0 0 416.9 413.7" enable-background="new 0 0 416.9 413.7" xml:space="preserve">
<g>
	<rect y="78.1" fill="#F9FAE7" width="92.8" height="256.5"/>
	<rect fill="#F9FAE7" width="92.8" height="55.1"/>
	<rect y="358" fill="#F9FAE7" width="92.8" height="55.1"/>
</g>
<g>
	<rect x="105.5" y="72.6" fill="#F9FAE7" width="103.9" height="21.6"/>
	<rect x="105.5" y="138.2" fill="#F9FAE7" width="103.9" height="211.2"/>
	<rect x="105.6" y="392.2" fill="#F9FAE7" width="103.9" height="21.6"/>
</g>
<g>
	
		<rect x="228.3" y="23.2" transform="matrix(-0.1392 -0.9903 0.9903 -0.1392 217.4428 293.8835)" fill="#F9FAE7" width="16.4" height="58.5"/>
	
		<rect x="232.9" y="96.8" transform="matrix(-0.9903 0.1392 -0.1392 -0.9903 554.5214 431.8833)" fill="#F9FAE7" width="58.5" height="277"/>
	
		<rect x="211" y="75.4" transform="matrix(-0.9903 0.1392 -0.1392 -0.9903 489.1887 124.5174)" fill="#F9FAE7" width="58.5" height="8"/>
	
		<rect x="255.8" y="387.2" transform="matrix(-0.9903 0.1392 -0.1392 -0.9903 622.8801 753.4863)" fill="#F9FAE7" width="58.5" height="22.6"/>
</g>
<g>
	<path fill="#F9FAE7" d="M327.9,346.2h89V125.6h-89V346.2z M340.7,136.9h64.5v157.5h-64.5V136.9z"/>
	<rect x="327.9" y="58.4" fill="#F9FAE7" width="89" height="47.4"/>
	<rect x="327.9" y="366.3" fill="#F9FAE7" width="89" height="47.4"/>
</g>
</svg>
